# xmcd
#
# Track frame offsets:
#	150
#	18221
#	41573
#	56293
#	76841
#	92723
#	111289
#	131867
#	153744
#	171771
#
# Disc length: 2508 seconds
#
# Revision: 1
# Processed by: cddbd v1.5.2PL0 Copyright (c) Steve Scherf et al.
# Submitted via: audiograbber 1.82.01
#
DISCID=7809ca0a
DTITLE=Delirtum - Il Clown
DYEAR=1999
DGENRE=Pop
TTITLE0=Dolce Acqua
TTITLE1=Il Clown
TTITLE2=Haum
TTITLE3=Vecchio Cuore
TTITLE4=Jesahel
TTITLE5=Lei Che Mi Vizia
TTITLE6=Canto Di Osanna
TTITLE7=L'Africa
TTITLE8=Favola o Storia Del Lago di Kriss
TTITLE9=E Torno Ancora
EXTD=Complesso estinto anni 90
EXTT0=
EXTT1=
EXTT2=
EXTT3=
EXTT4=
EXTT5=
EXTT6=
EXTT7=
EXTT8=
EXTT9=
PLAYORDER=
